<svg width="420" height="84" viewBox="0 0 420 84" fill="none" xmlns="http://www.w3.org/2000/svg">
<path d="M302.953 48.1806L309.108 37.9952L308.082 37.5524L306.763 37.2571L305.737 37.1095H300.461H298.263H296.798L295.039 37.4048L293.573 37.7L292.108 38.2904L294.16 41.6856L296.504 45.6711L297.53 47.4425L298.263 48.771L298.996 50.5424L299.436 51.7233L299.582 52.4614L299.729 54.2327L299.875 55.8565V63.3848V63.8276L299.729 64.7133L299.436 65.3037L297.823 66.0418V66.337L298.703 66.7799L299.729 66.9275H300.754L302.073 66.7799L302.806 66.337L302.66 65.8942L301.927 65.4514L301.487 65.0085L301.048 63.9752V55.4136L301.194 54.2327L301.341 53.1994L301.487 52.0185L301.927 50.5424L302.367 49.5091L302.953 48.1806Z" fill="#0FD2ED" stroke="#0FD2ED"/>
<g filter="url(#filter0_d_102_9)">
<path d="M63.2333 48.1806L69.3885 37.9952L68.3626 37.5524L67.0437 37.2571L66.0178 37.1095H57.0781L55.3195 37.4048L53.854 37.7L52.3885 38.2904L54.4402 41.6856L56.785 45.6711L57.8109 47.4425L58.5437 48.771L59.2764 50.5424L59.7161 51.7233L59.8626 52.4614L60.0092 54.2327L60.1557 55.8565V63.8276L60.0092 64.7133L59.7161 65.3037L58.104 66.0418V66.337L58.9833 66.7799L60.0092 66.9275H61.035L62.354 66.7799L63.0868 66.337L62.9402 65.8942L62.2075 65.4514L61.7678 65.0085L61.3281 63.9752V55.4136L61.4747 54.2327L61.6212 53.1994L61.7678 52.0185L62.2075 50.5424L62.6471 49.5091L63.2333 48.1806Z" fill="#AF28DE"/>
<path d="M63.2333 48.1806L69.3885 37.9952L68.3626 37.5524L67.0437 37.2571L66.0178 37.1095H57.0781L55.3195 37.4048L53.854 37.7L52.3885 38.2904L54.4402 41.6856L56.785 45.6711L57.8109 47.4425L58.5437 48.771L59.2764 50.5424L59.7161 51.7233L59.8626 52.4614L60.0092 54.2327L60.1557 55.8565V63.8276L60.0092 64.7133L59.7161 65.3037L58.104 66.0418V66.337L58.9833 66.7799L60.0092 66.9275H61.035L62.354 66.7799L63.0868 66.337L62.9402 65.8942L62.2075 65.4514L61.7678 65.0085L61.3281 63.9752V55.4136L61.4747 54.2327L61.6212 53.1994L61.7678 52.0185L62.2075 50.5424L62.6471 49.5091L63.2333 48.1806Z" stroke="#AF28DE"/>
</g>
<path d="M16.125 41C16.125 35.875 16.2292 30.0521 16.4375 23.5312C16.4792 21.9479 19.9583 20.9479 26.875 20.5312C27 20.1354 27 19.6458 26.875 19.0625C21.4167 19.2292 17.1562 19.3125 14.0938 19.3125C11.5312 19.3125 7.89583 19.2292 3.1875 19.0625C3.02083 19.4375 3.02083 19.9271 3.1875 20.5312C7.97917 20.9896 10.3958 21.9896 10.4375 23.5312C10.6458 28.4271 10.75 34.25 10.75 41C10.75 47.6042 10.625 54.1771 10.375 60.7188C10.3333 62.2604 7.91667 63.2604 3.125 63.7188C3 64.2396 3 64.7292 3.125 65.1875C7.14583 65.0625 16.4896 65 31.1562 65C36.1562 65 39.9062 64.0625 42.4062 62.1875C44.9062 60.3125 47.2396 57.1562 49.4062 52.7188C49.2396 52.3646 48.875 52.0833 48.3125 51.875C47.5 53.375 46.6042 54.7083 45.625 55.875C44.6458 57.0417 43.3542 58.2188 41.75 59.4062C40.1458 60.5729 38.1458 61.4792 35.75 62.125C33.375 62.7708 30.6771 63.0938 27.6562 63.0938H16.375C16.2083 55.7812 16.125 48.4167 16.125 41ZM20.875 43.3125C20.875 49.0208 20.9583 55.1875 21.125 61.8125H27.5938C36.8438 61.8125 43.5625 57.9688 47.75 50.2812C49.5 50.9271 50.6042 51.7396 51.0625 52.7188C48.0833 57.6562 46.3333 62.1771 45.8125 66.2812H20.5938C12.3646 66.2812 6.25 66.3438 2.25 66.4688C1.8125 65.1146 1.79167 63.7917 2.1875 62.5C6.75 62.0417 9.05208 61.4271 9.09375 60.6562C9.34375 54.1146 9.46875 47.5625 9.46875 41C9.46875 34.2917 9.36458 28.4896 9.15625 23.5938C9.11458 22.8229 6.79167 22.2083 2.1875 21.75C1.83333 20.375 1.875 19.0312 2.3125 17.7188C5.9375 17.9271 10.6042 18.0312 16.3125 18.0312C17.1667 18.0312 18.875 18.0104 21.4375 17.9688C24 17.9271 26.2396 17.9062 28.1562 17.9062C28.5521 19.0938 28.5729 20.375 28.2188 21.75C23.6146 22.2083 21.2917 22.8229 21.25 23.5938C21 28.8021 20.875 35.375 20.875 43.3125ZM88.25 61.8125C85.4792 61.8125 83.375 60.8125 81.9375 58.8125C80.5 56.7917 79.7812 54.25 79.7812 51.1875C79.7812 48.7083 80.0729 46.5833 80.6562 44.8125C81.2396 43.0417 82 41.7396 82.9375 40.9062C83.875 40.0729 84.7812 39.4896 85.6562 39.1562C86.5312 38.8021 87.4167 38.625 88.3125 38.625C91.25 38.625 93.4479 39.9688 94.9062 42.6562C94.9062 48.7188 94.9271 53.8021 94.9688 57.9062C92.4479 60.5104 90.2083 61.8125 88.25 61.8125ZM94.8438 77.3438C94.8021 78.8854 93.0312 79.8958 89.5312 80.375C89.3021 80.875 89.3021 81.3854 89.5312 81.9062C95.4479 81.7812 101.396 81.7812 107.375 81.9062C107.583 81.3854 107.583 80.875 107.375 80.375C102.438 79.8958 99.9479 78.8854 99.9062 77.3438C99.7188 72.6979 99.625 60.1979 99.625 39.8438C99.625 39.3021 99.3125 38.8958 98.6875 38.625C95.5625 37.2708 92.4688 36.5938 89.4062 36.5938C86.8021 36.5938 84.4792 37.0833 82.4375 38.0625C80.4167 39.0417 78.8438 40.3333 77.7188 41.9375C76.5938 43.5208 75.75 45.1979 75.1875 46.9688C74.625 48.7396 74.3438 50.5521 74.3438 52.4062C74.3438 56.5729 75.3542 59.8646 77.375 62.2812C79.4167 64.6979 82.0417 65.9062 85.25 65.9062C88.1875 65.9062 91.4271 64.0417 94.9688 60.3125C94.9688 69.625 94.9271 75.3021 94.8438 77.3438ZM104.312 77.2812C104.354 78.2188 105.76 78.8646 108.531 79.2188C108.865 80.4896 108.865 81.7396 108.531 82.9688C101.781 82.7604 95.0625 82.7604 88.375 82.9688C88.0208 81.7396 88.0208 80.4896 88.375 79.2188C91.7917 78.8646 93.5208 78.2188 93.5625 77.2812C93.6458 75.2812 93.6875 71.2083 93.6875 65.0625C91.6042 66.4792 89.1042 67.1875 86.1875 67.1875C82.1042 67.1875 78.8958 65.8854 76.5625 63.2812C74.2292 60.6771 73.0625 57.0521 73.0625 52.4062C73.0625 50.3854 73.3646 48.4271 73.9688 46.5312C74.5729 44.6354 75.4896 42.8125 76.7188 41.0625C77.9688 39.3125 79.7396 37.9167 82.0312 36.875C84.3438 35.8333 87.0312 35.3125 90.0938 35.3125C94.6562 35.3125 98.6875 35.9896 102.188 37.3438C103.083 37.6979 103.708 38.4271 104.062 39.5312C104.062 60.3021 104.146 72.8854 104.312 77.2812ZM93.625 43.0625C92.6458 41.3542 91.3021 40.3438 89.5938 40.0312C88.1354 40.3438 86.875 41.3542 85.8125 43.0625C84.75 44.75 84.2188 47.4583 84.2188 51.1875C84.2188 53.5625 84.6458 55.5938 85.5 57.2812C86.3542 58.9688 87.5833 60.0104 89.1875 60.4062C90.5208 60.0521 92.0208 59.0417 93.6875 57.375C93.6458 53.375 93.625 48.6042 93.625 43.0625ZM133.562 57.4375C133.729 52.2292 133.729 47.0104 133.562 41.7812C133.562 41.0521 131.99 40.4271 128.844 39.9062C128.365 38.6354 128.365 37.375 128.844 36.125H142.344C142.927 36.3542 143.344 36.6042 143.594 36.875C143.865 37.1458 144.104 37.5417 144.312 38.0625C144.312 38.4375 144.26 39.0312 144.156 39.8438C144.052 40.6562 144 41.3021 144 41.7812C143.792 48.6354 143.792 54.6042 144 59.6875C145.5 60.1667 147.083 60.4479 148.75 60.5312C149.208 61.7604 149.208 63.0833 148.75 64.5C146.021 64.6667 142.646 65.6042 138.625 67.3125C136.354 67.1458 134.667 66.4583 133.562 65.25V64.4375C130.708 66.2708 127.323 67.1875 123.406 67.1875C120.573 67.1875 118.562 66.4167 117.375 64.875C116.188 63.3333 115.573 60.9167 115.531 57.625C115.573 52.3958 115.573 47.1146 115.531 41.7812C115.531 41.0521 113.948 40.4271 110.781 39.9062C110.323 38.6354 110.323 37.375 110.781 36.125H124.344C124.948 36.3542 125.375 36.6042 125.625 36.875C125.896 37.1458 126.135 37.5417 126.344 38.0625C126.344 38.4375 126.292 39.0312 126.188 39.8438C126.083 40.6562 126.031 41.3021 126.031 41.7812C125.885 46.6354 125.885 51.5833 126.031 56.625C126.115 59 126.542 60.3854 127.312 60.7812C128.833 60.3854 130.917 59.2708 133.562 57.4375ZM134.844 41.7812C134.969 47.1979 134.969 52.6354 134.844 58.0938C130.969 60.8646 127.979 62.25 125.875 62.25C123.021 62.25 121.594 60.375 121.594 56.625C121.469 51.5833 121.469 46.6354 121.594 41.7812C121.594 41.2188 121.646 40.5417 121.75 39.75C121.875 38.9583 121.938 38.4583 121.938 38.25C121.708 37.7708 121.406 37.4479 121.031 37.2812C117.948 37.4896 114.875 37.4896 111.812 37.2812C111.646 37.7604 111.646 38.25 111.812 38.75C115.104 39.2708 116.771 40.2812 116.812 41.7812C116.854 47.0729 116.854 52.3542 116.812 57.625C116.771 60.4583 117.26 62.5521 118.281 63.9062C119.302 65.2396 121.01 65.9062 123.406 65.9062C126.552 65.9062 130.365 63.9583 134.844 60.0625V64.625C135.01 64.9583 135.375 65.2292 135.938 65.4375C138.917 64.3333 142.781 63.5938 147.531 63.2188C147.698 62.6979 147.698 62.2083 147.531 61.75C143.948 61.6042 141.302 61.1771 139.594 60.4688C139.427 53.0312 139.427 46.8021 139.594 41.7812C139.594 41.2188 139.646 40.5417 139.75 39.75C139.854 38.9583 139.906 38.4583 139.906 38.25C139.698 37.7708 139.396 37.4479 139 37.2812C135.979 37.4479 132.927 37.4479 129.844 37.2812C129.677 37.7604 129.677 38.25 129.844 38.75C133.135 39.2708 134.802 40.2812 134.844 41.7812ZM169.156 38.625C171.302 38.625 173 39.6562 174.25 41.7188C175.521 43.7604 176.156 46.9375 176.156 51.25C176.156 55.5625 175.521 58.7396 174.25 60.7812C173 62.8229 171.302 63.8438 169.156 63.8438C167.969 63.8438 166.885 63.5938 165.906 63.0938C164.948 62.5938 164.125 61.8229 163.438 60.7812C162.771 59.7396 162.25 58.4375 161.875 56.875C161.5 55.2917 161.312 53.4167 161.312 51.25C161.312 49.1042 161.5 47.2396 161.875 45.6562C162.25 44.0521 162.771 42.7396 163.438 41.7188C164.125 40.6771 164.948 39.9062 165.906 39.4062C166.885 38.8854 167.969 38.625 169.156 38.625ZM169.156 65.9062C171.094 65.9062 172.833 65.5417 174.375 64.8125C175.917 64.0833 177.229 63.0729 178.312 61.7812C179.417 60.4688 180.26 58.9167 180.844 57.125C181.427 55.3333 181.719 53.375 181.719 51.25C181.719 49.125 181.427 47.1667 180.844 45.375C180.26 43.5833 179.417 42.0417 178.312 40.75C177.229 39.4375 175.917 38.4167 174.375 37.6875C172.833 36.9583 171.094 36.5938 169.156 36.5938C167.094 36.5938 165.229 36.9583 163.562 37.6875C161.896 38.4167 160.479 39.4271 159.312 40.7188C158.167 42.0104 157.281 43.5625 156.656 45.375C156.031 47.1667 155.719 49.125 155.719 51.25C155.719 53.3958 156.031 55.3646 156.656 57.1562C157.281 58.9479 158.167 60.5 159.312 61.8125C160.479 63.1042 161.896 64.1146 163.562 64.8438C165.229 65.5521 167.094 65.9062 169.156 65.9062ZM170.25 35.3125C172.771 35.3125 175.01 35.6979 176.969 36.4688C178.948 37.2396 180.615 38.3333 181.969 39.75C183.323 41.1458 184.354 42.8229 185.062 44.7812C185.771 46.7396 186.125 48.8958 186.125 51.25C186.125 53.5833 185.771 55.7292 185.062 57.6875C184.354 59.6458 183.323 61.3333 181.969 62.75C180.635 64.1458 178.979 65.2292 177 66C175.021 66.7917 172.771 67.1875 170.25 67.1875C167.75 67.1875 165.51 66.7917 163.531 66C161.573 65.2292 159.917 64.1458 158.562 62.75C157.229 61.3333 156.208 59.6562 155.5 57.7188C154.792 55.7604 154.438 53.6042 154.438 51.25C154.438 48.8958 154.792 46.7396 155.5 44.7812C156.208 42.8229 157.24 41.1458 158.594 39.75C159.948 38.3333 161.604 37.2396 163.562 36.4688C165.521 35.6979 167.75 35.3125 170.25 35.3125ZM165.719 51.25C165.719 57.9792 167.229 61.7083 170.25 62.4375C173.333 61.7083 174.875 57.9792 174.875 51.25C174.875 44.5833 173.333 40.8438 170.25 40.0312C167.229 40.8438 165.719 44.5833 165.719 51.25ZM203.125 47.4062C203.646 45.4896 204.719 43.625 206.344 41.8125C207.969 40 209.625 39.0938 211.312 39.0938C213.292 39.0938 214.281 39.7292 214.281 41C214.281 42.1458 213.74 42.875 212.656 43.1875C212.365 43.6042 212.365 44.0938 212.656 44.6562C213.781 44.6562 214.698 44.3125 215.406 43.625C216.135 42.9375 216.5 41.9792 216.5 40.75C216.5 39.4583 216.104 38.4479 215.312 37.7188C214.542 36.9688 213.531 36.5938 212.281 36.5938C210.656 36.5938 209.021 37.25 207.375 38.5625C205.75 39.8542 204.333 41.3021 203.125 42.9062V37.5312C202.958 37.1979 202.604 36.9271 202.062 36.7188C199.271 38.0312 196.042 38.8854 192.375 39.2812C192.25 39.7812 192.25 40.2708 192.375 40.75C195.188 40.875 197.198 41.3021 198.406 42.0312C198.573 49.8021 198.552 56.0312 198.344 60.7188C198.302 62.2604 196.531 63.2604 193.031 63.7188C192.719 64.2812 192.719 64.7708 193.031 65.1875C198.49 64.9375 204.438 64.9375 210.875 65.1875C211.167 64.7708 211.167 64.2812 210.875 63.7188C205.938 63.2604 203.448 62.2604 203.406 60.7188C203.219 56.4896 203.125 52.0521 203.125 47.4062ZM207.812 60.6562C207.854 61.4688 209.26 62.1042 212.031 62.5625C212.719 63.9375 212.677 65.2604 211.906 66.5312C203.073 66.2396 196.396 66.1771 191.875 66.3438C191.104 65.1146 191.062 63.8542 191.75 62.5625C195.25 62.1042 197.021 61.4688 197.062 60.6562C197.312 54.7188 197.333 48.7604 197.125 42.7812C195.75 42.3646 193.854 42.0938 191.438 41.9688C190.958 40.7188 190.958 39.3958 191.438 38C194.917 37.7917 198.604 36.8542 202.5 35.1875C204.75 35.4375 206.438 36.1146 207.562 37.2188C209.312 35.9479 210.885 35.3125 212.281 35.3125C213.906 35.3125 215.229 35.7917 216.25 36.75C217.271 37.7083 217.781 39.0417 217.781 40.75C217.781 42.375 217.302 43.6458 216.344 44.5625C215.385 45.4792 214.156 45.9375 212.656 45.9375C211.26 45.9375 210.094 45.4688 209.156 44.5312C208.302 45.6771 207.771 46.7188 207.562 47.6562C207.562 52.1771 207.646 56.5104 207.812 60.6562ZM277.625 45.0312V40.9375C277.625 36.125 277.521 30.4688 277.312 23.9688C277.271 22.8646 274.99 22.125 270.469 21.75C270.177 21.0208 270.031 20.3542 270.031 19.75C270.031 19.375 270.177 18.7396 270.469 17.8438C273.635 17.9688 276.812 18.0312 280 18.0312C283.208 18.0312 286.5 17.9688 289.875 17.8438C290.167 18.7396 290.312 19.375 290.312 19.75C290.312 20.3542 290.167 21.0208 289.875 21.75C285.562 22.1667 283.385 22.9062 283.344 23.9688C283.073 28.3646 282.938 34.7917 282.938 43.25C282.938 52.7917 283.073 60.5104 283.344 66.4062L280.781 66.4688L251.125 30.1875C251.125 30.5625 251.115 31.25 251.094 32.25C251.073 33.2292 251.062 33.9896 251.062 34.5312C251.062 44.5938 251.198 53.1667 251.469 60.25C251.51 61.375 253.792 62.125 258.312 62.5C258.604 63.2292 258.75 63.8958 258.75 64.5C258.75 64.9583 258.604 65.6354 258.312 66.5312C255.104 66.4062 251.927 66.3438 248.781 66.3438C245.573 66.3438 242.281 66.4062 238.906 66.5312C238.615 65.6354 238.469 64.9583 238.469 64.5C238.469 63.8958 238.615 63.2292 238.906 62.5C243.219 62.0833 245.396 61.3333 245.438 60.25C245.688 55.875 245.812 49.4583 245.812 41C245.812 34.5208 245.729 28.7396 245.562 23.6562C244.208 22.5938 242.146 21.9583 239.375 21.75C239.062 21.1875 238.906 20.5417 238.906 19.8125C238.906 19.0417 239.104 18.3438 239.5 17.7188C243.854 17.9271 249.354 18.0312 256 18.0312L277.625 45.0312ZM281.656 43.25C281.656 36.9375 281.792 30.5104 282.062 23.9688C282.146 22.0938 284.448 20.9479 288.969 20.5312C289.135 20.1771 289.135 19.6875 288.969 19.0625C285.031 19.1875 282.24 19.25 280.594 19.25C277.99 19.25 275.021 19.1875 271.688 19.0625C271.521 19.6875 271.521 20.1771 271.688 20.5312C276.25 20.9479 278.552 22.0938 278.594 23.9688C278.802 30.4688 278.906 36.125 278.906 40.9375C278.906 43.75 278.865 47.5417 278.781 52.3125L251.844 19.3125C247.156 19.3125 243.271 19.2292 240.188 19.0625C240.021 19.5625 240.021 20.0521 240.188 20.5312C242.875 20.6979 245.094 21.5521 246.844 23.0938C247.01 28.1562 247.094 34.125 247.094 41C247.094 47.3125 246.969 53.7292 246.719 60.25C246.635 62.1458 244.333 63.3021 239.812 63.7188C239.646 64.0521 239.646 64.5417 239.812 65.1875C243.729 65.0625 246.521 65 248.188 65C250.792 65 253.76 65.0625 257.094 65.1875C257.26 64.5417 257.26 64.0521 257.094 63.7188C252.531 63.3021 250.229 62.1458 250.188 60.25C249.979 53.7708 249.875 48.125 249.875 43.3125C249.875 37.8125 249.938 32.3646 250.062 26.9688H250.375L281.406 65.1875L282 65.125C281.771 60.2292 281.656 52.9375 281.656 43.25ZM320.281 46.875C320.281 43.9792 320.823 41.8854 321.906 40.5938C323.01 39.2812 324.396 38.625 326.062 38.625C327.292 38.625 328.427 39.2188 329.469 40.4062C330.531 41.5729 331.062 43.5417 331.062 46.3125C331.062 52.25 329.438 55.2188 326.188 55.2188C322.25 55.2188 320.281 52.4375 320.281 46.875ZM320.156 73.3125C320.156 71.0208 321.479 69.1667 324.125 67.75C325.792 67.5833 328.354 67.5 331.812 67.5C334.292 67.5 335.948 67.9583 336.781 68.875C337.615 69.7917 338.031 71.125 338.031 72.875C338.031 74.375 337.229 75.9271 335.625 77.5312C334.021 79.1562 331.625 79.9688 328.438 79.9688C325.562 79.9688 323.458 79.3125 322.125 78C320.812 76.7083 320.156 75.1458 320.156 73.3125ZM340.25 37.9375C340.812 37.9792 341.094 38.2708 341.094 38.8125C341.094 39.5 340.667 39.9062 339.812 40.0312C339.083 40.1146 338.188 39.9479 337.125 39.5312C336.562 39.3229 335.844 39.0312 334.969 38.6562C334.094 38.2604 333.479 37.9896 333.125 37.8438C332.771 37.6771 332.281 37.4896 331.656 37.2812C331.031 37.0729 330.49 36.9375 330.031 36.875C329.594 36.8125 329.042 36.75 328.375 36.6875C327.729 36.625 327 36.5938 326.188 36.5938C323.021 36.5938 320.333 37.6562 318.125 39.7812C315.938 41.9062 314.844 44.25 314.844 46.8125C314.844 50.9583 316.729 54.0729 320.5 56.1562C317.125 58.6771 315.438 60.9375 315.438 62.9375C315.438 65.4583 317.438 67.0208 321.438 67.625C317.354 69.8333 315.312 72.4792 315.312 75.5625C315.312 77.5625 316.25 79.2292 318.125 80.5625C320 81.9167 322.75 82.5938 326.375 82.5938C330.688 82.5938 334.333 81.1667 337.312 78.3125C340.312 75.4583 341.812 72.5521 341.812 69.5938C341.812 64.8229 338.906 62.4375 333.094 62.4375C332.448 62.4375 331.594 62.4583 330.531 62.5C329.469 62.5417 328.74 62.5625 328.344 62.5625C325.156 62.5625 322.906 62.3542 321.594 61.9375C320.302 61.5 319.656 60.8125 319.656 59.875C319.656 58.6875 320.573 57.7083 322.406 56.9375C323.677 57.1458 325.021 57.25 326.438 57.25C329.25 57.25 331.625 56.2708 333.562 54.3125C335.521 52.3542 336.5 49.7083 336.5 46.375C336.5 43.7292 336 41.7292 335 40.375L335.156 40.2188C335.49 40.4479 335.938 40.7708 336.5 41.1875C337.083 41.5833 337.521 41.8646 337.812 42.0312C338.125 42.1979 338.521 42.3646 339 42.5312C339.5 42.6979 339.99 42.7812 340.469 42.7812C341.26 42.7812 341.927 42.4792 342.469 41.875C343.01 41.25 343.281 40.5104 343.281 39.6562C343.281 38.7604 343.021 38.0104 342.5 37.4062C342 36.7812 341.25 36.4688 340.25 36.4688C339.958 37.0104 339.958 37.5 340.25 37.9375ZM340.656 44.0625C340.823 44.75 340.906 45.5208 340.906 46.375C340.906 50.0833 339.719 53.0417 337.344 55.25C334.99 57.4375 332.104 58.5312 328.688 58.5312H324.781C324.177 59.2188 324 59.8333 324.25 60.375C324.521 60.8958 325.021 61.1562 325.75 61.1562H336.219C342.885 61.1562 346.219 63.9688 346.219 69.5938C346.219 71.0938 345.771 72.6667 344.875 74.3125C343.979 75.9583 342.729 77.4896 341.125 78.9062C339.521 80.3438 337.417 81.5312 334.812 82.4688C332.208 83.4062 329.396 83.875 326.375 83.875C322.312 83.875 319.24 83.0833 317.156 81.5C315.073 79.9375 314.031 77.9583 314.031 75.5625C314.031 72.9167 315.417 70.4583 318.188 68.1875C315.5 67.25 314.156 65.5 314.156 62.9375C314.156 60.7292 315.521 58.4896 318.25 56.2188C315.125 53.9688 313.562 50.8333 313.562 46.8125C313.562 43.9583 314.792 41.3333 317.25 38.9375C319.708 36.5208 322.688 35.3125 326.188 35.3125C328.792 35.3125 330.708 35.4479 331.938 35.7188C333.188 35.9896 334.75 36.5104 336.625 37.2812C337.562 35.8854 338.771 35.1875 340.25 35.1875C341.708 35.1875 342.792 35.6146 343.5 36.4688C344.208 37.3229 344.562 38.3854 344.562 39.6562C344.562 40.8854 344.208 41.9271 343.5 42.7812C342.792 43.6354 341.844 44.0625 340.656 44.0625ZM324.594 73.3125C324.594 74.6458 324.979 75.8125 325.75 76.8125C326.542 77.8125 327.812 78.4167 329.562 78.625C331.958 78.4167 333.75 77.6771 334.938 76.4062C336.146 75.1562 336.75 73.9792 336.75 72.875C336.75 71.5833 336.458 70.5729 335.875 69.8438C335.292 69.1354 334.177 68.7812 332.531 68.7812C330.552 68.7812 328.604 68.8646 326.688 69.0312C325.292 70.2188 324.594 71.6458 324.594 73.3125ZM324.719 46.875C324.719 50.8125 325.573 53.1042 327.281 53.75C328.948 53.1042 329.781 50.625 329.781 46.3125C329.781 42.8958 328.906 40.8438 327.156 40.1562C325.531 40.8438 324.719 43.0833 324.719 46.875ZM369.719 63.5625C369.469 64.0417 369.469 64.5521 369.719 65.0938C375.135 64.9688 380.552 64.9688 385.969 65.0938C386.281 64.5938 386.281 64.0833 385.969 63.5625C380.906 63.3125 378.354 62.3125 378.312 60.5625L377.969 44.8438C377.885 41.9896 377.427 39.9062 376.594 38.5938C375.76 37.2604 374.323 36.5938 372.281 36.5938C368.823 36.5938 364.708 38.9792 359.938 43.75V18.2188C359.771 17.8854 359.406 17.6042 358.844 17.375C355.948 18.75 352.938 19.6042 349.812 19.9375C349.688 20.4583 349.688 20.9479 349.812 21.4062C352.208 21.5312 353.979 21.9583 355.125 22.6875V60.5625C355.083 62.1042 353.292 63.1042 349.75 63.5625C349.5 64.0417 349.5 64.5521 349.75 65.0938C355.208 64.8854 360.646 64.8854 366.062 65.0938C366.333 64.5521 366.333 64.0417 366.062 63.5625C362.188 63.1458 360.229 62.1458 360.188 60.5625C360.021 56.125 359.938 51.1875 359.938 45.75C364.104 42.0625 367.385 40.2188 369.781 40.2188C372.052 40.2188 373.188 42.1042 373.188 45.875L373.125 60.5625C373.125 61.5833 372.812 62.3021 372.188 62.7188C371.562 63.1146 370.74 63.3958 369.719 63.5625ZM368.688 66.1875C368.188 64.9583 368.188 63.6979 368.688 62.4062C369.375 62.4062 370.073 62.2292 370.781 61.875C371.49 61.5 371.844 61.0625 371.844 60.5625L371.906 45.875C371.906 43.6042 371.458 42.2188 370.562 41.7188C369.021 42.0938 366.948 43.2188 364.344 45.0938C364.344 50.7188 364.427 55.8542 364.594 60.5C364.677 61.6042 365.51 62.2396 367.094 62.4062C367.615 63.6979 367.615 64.9583 367.094 66.1875C360.99 65.9792 354.844 65.9792 348.656 66.1875C348.156 64.9583 348.156 63.6979 348.656 62.4062C352.073 61.9479 353.802 61.3125 353.844 60.5V23.4688C352.448 23.0312 350.719 22.75 348.656 22.625C348.198 21.3958 348.198 20.0729 348.656 18.6562C351.823 18.4896 355.365 17.5521 359.281 15.8438C361.552 16.0104 363.24 16.6979 364.344 17.9062V38.25C367.281 36.2917 370.677 35.3125 374.531 35.3125C377.344 35.3125 379.344 36.0833 380.531 37.625C381.74 39.1458 382.365 41.5521 382.406 44.8438C382.49 53.0104 382.594 58.25 382.719 60.5625C382.76 61.4167 384.229 62.0312 387.125 62.4062C387.604 63.7812 387.562 65.0417 387 66.1875C380.896 66.0625 374.792 66.0625 368.688 66.1875ZM401.062 40.375H413.344C413.635 39.5625 413.635 38.8125 413.344 38.125H401.062V31.2812C400.542 31.0521 400.021 31.0521 399.5 31.2812C398.729 32.7188 397.875 33.9792 396.938 35.0625C396 36.125 395.208 36.875 394.562 37.3125C393.938 37.7292 393.031 38.2708 391.844 38.9375C391.698 39.375 391.698 39.8542 391.844 40.375H395.656V56.75C395.656 62.8542 398.177 65.9062 403.219 65.9062C405.365 65.9062 407.344 65.3542 409.156 64.25C410.969 63.125 412.323 61.75 413.219 60.125C413.031 59.6667 412.688 59.4167 412.188 59.375C410.229 61.125 408.333 62 406.5 62C402.875 62 401.062 60.3542 401.062 57.0625V40.375ZM411.812 58.0312C413.125 58.1979 414.062 58.9167 414.625 60.1875C413.542 62.1667 411.969 63.8229 409.906 65.1562C407.844 66.5104 405.615 67.1875 403.219 67.1875C397.344 67.1875 394.406 63.7083 394.406 56.75V41.625H390.562C390.25 40.5208 390.25 39.375 390.562 38.1875C391.833 37.4583 392.802 36.8646 393.469 36.4062C394.135 35.9271 394.969 35.1562 395.969 34.0938C396.969 33.0312 397.854 31.75 398.625 30.25C400.583 29.4375 402.865 29.4792 405.469 30.375V36.8438H414.562C415.229 38.3854 415.229 39.9792 414.562 41.625H405.469V57.0625C405.469 59.0625 406.188 60.2396 407.625 60.5938C408.875 60.3229 410.271 59.4688 411.812 58.0312Z" fill="url(#paint0_linear_102_9)"/>
<defs>
<filter id="filter0_d_102_9" x="51.6567" y="36.6095" width="18.4562" height="30.818" filterUnits="userSpaceOnUse" color-interpolation-filters="sRGB">
<feFlood flood-opacity="0" result="BackgroundImageFix"/>
<feColorMatrix in="SourceAlpha" type="matrix" values="0 0 0 0 0 0 0 0 0 0 0 0 0 0 0 0 0 0 127 0" result="hardAlpha"/>
<feOffset/>
<feComposite in2="hardAlpha" operator="out"/>
<feColorMatrix type="matrix" values="0 0 0 0 0 0 0 0 0 0 0 0 0 0 0 0 0 0 1 0"/>
<feBlend mode="normal" in2="BackgroundImageFix" result="effect1_dropShadow_102_9"/>
<feBlend mode="normal" in="SourceGraphic" in2="effect1_dropShadow_102_9" result="shape"/>
</filter>
<linearGradient id="paint0_linear_102_9" x1="210" y1="0" x2="210" y2="70" gradientUnits="userSpaceOnUse">
<stop stop-color="#0FD2ED"/>
<stop offset="1" stop-color="#AF28DE"/>
</linearGradient>
</defs>
</svg>
